HIERARCHY
ROOT Hips
{
 OFFSET 0.000000 0.000000 0.000000
 CHANNELS 6 Xposition Yposition Zposition Yrotation Xrotation Zrotation
 JOINT Chest
 {
  OFFSET 0.000000 9.585900 0.002600
  CHANNELS 3 Yrotation Xrotation Zrotation
  JOINT Chest2
  {
   OFFSET 0.000000 9.601200 -0.005300
   CHANNELS 3 Yrotation Xrotation Zrotation
   JOINT Chest3
   {
    OFFSET 0.000000 9.561800 0.000000
    CHANNELS 3 Yrotation Xrotation Zrotation
    JOINT Chest4
    {
     OFFSET 0.000000 9.552100 0.000000
     CHANNELS 3 Yrotation Xrotation Zrotation
     JOINT Neck
     {
      OFFSET 0.000000 14.453000 0.000000
      CHANNELS 3 Yrotation Xrotation Zrotation
      JOINT Head
      {
       OFFSET 0.000000 8.936500 -0.011300
       CHANNELS 3 Yrotation Xrotation Zrotation
       End Site
       {
        OFFSET 0.000000 17.073600 -0.006000
       }
      }
     }
     JOINT RightCollar
     {
      OFFSET -2.921100 9.558500 0.000000
      CHANNELS 3 Yrotation Xrotation Zrotation
      JOINT RightShoulder
      {
       OFFSET -13.519700 0.000000 0.000000
       CHANNELS 3 Yrotation Xrotation Zrotation
       JOINT RightElbow
       {
        OFFSET 0.000000 -29.696600 0.000000
        CHANNELS 3 Yrotation Xrotation Zrotation
        JOINT RightWrist
        {
         OFFSET 0.000000 -24.004700 0.000000
         CHANNELS 3 Yrotation Xrotation Zrotation
         End Site
         {
          OFFSET 0.000000 -17.728500 0.000000
         }
        }
       }
      }
     }
     JOINT LeftCollar
     {
      OFFSET 2.921100 9.558500 0.000000
      CHANNELS 3 Yrotation Xrotation Zrotation
      JOINT LeftShoulder
      {
       OFFSET 13.519700 0.000000 0.000000
       CHANNELS 3 Yrotation Xrotation Zrotation
       JOINT LeftElbow
       {
        OFFSET 0.000000 -29.696600 0.000000
        CHANNELS 3 Yrotation Xrotation Zrotation
        JOINT LeftWrist
        {
         OFFSET 0.000000 -24.004700 0.000000
         CHANNELS 3 Yrotation Xrotation Zrotation
         End Site
         {
          OFFSET 0.000000 -17.728500 0.000000
         }
        }
       }
      }
     }
    }
   }
  }
 }
 JOINT RightHip
 {
  OFFSET -7.771700 -0.012900 -0.001300
  CHANNELS 3 Yrotation Xrotation Zrotation
  JOINT RightKnee
  {
   OFFSET 0.000000 -40.869800 0.001200
   CHANNELS 3 Yrotation Xrotation Zrotation
   JOINT RightAnkle
   {
    OFFSET 0.000000 -39.717900 0.002100
    CHANNELS 3 Yrotation Xrotation Zrotation
    JOINT RightToe
    {
     OFFSET 0.000000 -4.965400 11.033500
     CHANNELS 3 Yrotation Xrotation Zrotation
     End Site
     {
      OFFSET 0.000000 -1.423100 5.872300
     }
    }
   }
  }
 }
 JOINT LeftHip
 {
  OFFSET 7.771700 -0.012900 -0.001300
  CHANNELS 3 Yrotation Xrotation Zrotation
  JOINT LeftKnee
  {
   OFFSET 0.000000 -40.869800 0.001200
   CHANNELS 3 Yrotation Xrotation Zrotation
   JOINT LeftAnkle
   {
    OFFSET 0.000000 -39.717900 0.002100
    CHANNELS 3 Yrotation Xrotation Zrotation
    JOINT LeftToe
    {
     OFFSET 0.000000 -4.965400 11.033500
     CHANNELS 3 Yrotation Xrotation Zrotation
     End Site
     {
      OFFSET 0.000000 -1.423100 5.872300
     }
    }
   }
  }
 }
}
MOTION
Frames: 5
Frame Time: 0.008333
-112.861104 57.486022 101.691745 170.045033 -46.065979 3.306992 4.166954 28.246844 3.898734 0.569265 5.201064 0.600569 0.917458 8.164131 0.964059 3.044092 22.778807 3.163320 0.208872 12.234919 -3.879280 1.993297 -12.981139 -7.483863 -1.274431 0.900741 -1.617367 -8.272400 -14.648096 -1.241823 -102.494600 -36.882192 110.146470 2.494761 -23.238897 -62.923919 -6.869984 0.307665 -1.541795 28.238796 -9.617597 -7.275413 80.738765 -21.606977 -99.561123 6.649811 -22.917358 36.768858 10.350888 -30.556725 -1.395807 -16.941936 63.718289 -17.676158 8.444853 28.871701 4.098231 -0.605919 -17.077379 4.291861 -8.007961 -25.681990 0.818814 28.425602 58.952284 24.843780 -13.966557 11.095159 -6.624970 0.094011 0.285011 0.042054
-112.863089 57.485723 101.692177 170.048005 -46.065841 3.303977 4.160719 28.242651 3.890107 0.571610 5.202760 0.604674 0.916795 8.162260 0.963774 3.034400 22.773146 3.157299 0.223051 12.230453 -3.876091 2.015277 -12.988155 -7.484089 -1.264630 0.908708 -1.616107 -8.263217 -14.656104 -1.244872 -102.483881 -36.987723 110.071477 2.482472 -22.981571 -62.838156 -6.855029 0.301286 -1.552980 28.226814 -9.611407 -7.263669 80.807933 -21.674876 -99.519157 6.612056 -22.949479 36.793579 10.346629 -30.555623 -1.392670 -16.947301 63.713548 -17.687779 8.450360 28.874299 4.106008 -0.610526 -17.079100 4.291633 -7.993281 -25.686029 0.819484 28.415409 58.961171 24.833452 -13.959470 11.096942 -6.606979 0.087974 0.284064 0.039132
-112.864457 57.485367 101.692485 170.053993 -46.065970 3.293918 4.154536 28.239115 3.888487 0.565823 5.195817 0.597795 0.925673 8.167730 0.972184 3.022372 22.769640 3.151514 0.237421 12.222144 -3.876576 2.038459 -12.996218 -7.487270 -1.264156 0.910056 -1.622936 -8.242037 -14.670866 -1.253397 -102.458365 -37.094252 109.967003 2.450528 -22.668041 -62.742324 -6.839104 0.305168 -1.558486 28.211457 -9.613571 -7.266342 80.838145 -21.712330 -99.498567 6.535344 -22.995447 36.847794 10.339289 -30.555600 -1.385456 -16.951791 63.711582 -17.695893 8.452584 28.874035 4.114231 -0.611227 -17.080116 4.288062 -7.976500 -25.689609 0.824883 28.400715 58.970019 24.825404 -13.957444 11.098139 -6.593269 0.082202 0.282275 0.038264
-112.865782 57.485432 101.692125 170.055036 -46.069361 3.287016 4.150988 28.237945 3.886667 0.564461 5.194782 0.597522 0.914074 8.160898 0.964883 3.027960 22.773664 3.155787 0.251777 12.216415 -3.878842 2.087962 -13.049162 -7.501660 -1.253670 0.913302 -1.628007 -8.226853 -14.695090 -1.264694 -102.408810 -37.196565 109.836206 2.390066 -22.329182 -62.618128 -6.824024 0.306020 -1.571404 28.195463 -9.616143 -7.261161 80.915284 -21.826416 -99.415446 6.588042 -22.987887 36.814028 10.335661 -30.551823 -1.377511 -16.954436 63.710447 -17.699343 8.449092 28.870043 4.113411 -0.605274 -17.078322 4.287902 -7.949748 -25.688156 0.831949 28.386127 58.979531 24.815790 -13.968484 11.094691 -6.573064 0.074976 0.283504 0.034536
-112.866433 57.485589 101.691487 170.060063 -46.073126 3.273171 4.146717 28.236583 3.888646 0.563273 5.193816 0.597560 0.912241 8.159545 0.964912 3.022974 22.772502 3.155605 0.263467 12.205217 -3.880287 2.114644 -13.075897 -7.508629 -1.240155 0.920078 -1.629842 -8.213573 -14.748844 -1.299487 -102.307744 -37.264835 109.652306 2.297517 -22.000060 -62.462949 -6.810279 0.299189 -1.591066 28.187135 -9.612550 -7.240835 80.956758 -21.905170 -99.348545 6.598715 -23.000259 36.812442 10.334030 -30.547674 -1.366085 -16.976194 63.707250 -17.718428 8.453015 28.865715 4.119335 -0.613520 -17.078114 4.289330 -7.932700 -25.684642 0.842299 28.366299 58.986086 24.806701 -13.974199 11.092501 -6.567045 0.079886 0.284870 0.036582
